<svg width="21" height="21" viewBox="0 0 21 21" fill="none" xmlns="http://www.w3.org/2000/svg">    <path d="M20.4326 17.0816L13.8466 10.4994L20.4276 3.91331C21.1866 3.15687 21.1866 1.94027 20.4301 1.1813L19.8187 0.568589C19.4594 0.200456 18.9677 0 18.4508 0C18.4483 0 18.4483 0 18.4483 0C17.9314 0 17.446 0.202978 17.0829 0.567329L10.4994 7.15591L3.91331 0.574893C3.15813 -0.181546 1.94278 -0.185328 1.18383 0.571111L0.571111 1.17752C0.201717 1.53935 0 2.03104 0 2.54668C0 3.06484 0.202977 3.55274 0.567328 3.91583L7.1559 10.4994L0.573632 17.0854C-0.185327 17.8419 -0.185327 19.0585 0.571111 19.82L1.18256 20.4314C1.54439 20.7995 2.03482 21 2.55172 21C3.0661 21 3.55778 20.7945 3.91961 20.4327L10.5019 13.8454L17.0854 20.4251C17.4586 20.8021 17.9553 20.9924 18.4533 20.9924C18.9462 20.9924 19.4405 20.8046 19.8174 20.4289L20.4289 19.8187C20.7995 19.4594 21 18.9677 21 18.4508C21.0025 17.9339 20.7995 17.446 20.4352 17.0816H20.4326Z" fill="url(#paint0_linear)"/>    <defs>        <linearGradient id="paint0_linear" x1="3.7575" y1="-1.6533" x2="17.8857" y2="20.1402" gradientUnits="userSpaceOnUse">            <stop stop-color="#FF9B9B"/>            <stop offset="1" stop-color="#FF3030"/>        </linearGradient>    </defs></svg>