<svg width="38" height="36" viewBox="0 0 38 36" fill="none" xmlns="http://www.w3.org/2000/svg">
    <path fill-rule="evenodd" clip-rule="evenodd"
          d="M19.5604 0.0794339C23.7385 -0.334596 28.5092 0.854838 31.1629 4.00173C33.7208 7.03501 31.2649 11.6483 32.4674 15.3851C33.6433 19.0393 38.1942 21.4068 37.9936 25.2289C37.7814 29.2704 35.1667 33.4099 31.4259 35.2265C27.788 36.9932 23.4515 35.3383 19.5604 34.1806C16.6292 33.3084 14.807 30.7184 12.032 29.4559C8.21296 27.7185 2.1991 29.1471 0.391589 25.46C-1.34636 21.9147 3.16436 18.3864 4.8577 14.821C6.3031 11.7777 7.1621 8.55262 9.56651 6.14186C12.3647 3.33625 15.5499 0.476866 19.5604 0.0794339Z"
          fill="#FFF4F6"/>
</svg>
